<mxfile host="app.diagrams.net" agent="Mozilla/5.0 (X11; Linux x86_64) AppleWebKit/537.36 (KHTML, like Gecko) Chrome/138.0.0.0 Safari/537.36" version="28.0.6">
  <diagram name="Page-1" id="qAi07MPnIEQHTASuZzk_">
    <mxGraphModel grid="1" page="1" gridSize="10" guides="1" tooltips="1" connect="1" arrows="1" fold="1" pageScale="1" pageWidth="2336" pageHeight="1654" background="light-dark(#FFFFFF,#232E40)" math="0" shadow="0">
      <root>
        <mxCell id="0" />
        <mxCell id="1" parent="0" />
        <mxCell id="hiR0SJMqwdzuoFLeXjnr-14" value="customers" style="swimlane;fontStyle=0;childLayout=stackLayout;horizontal=1;startSize=26;horizontalStack=0;resizeParent=1;resizeParentMax=0;resizeLast=0;collapsible=1;marginBottom=0;align=center;fontSize=14;" vertex="1" parent="1">
          <mxGeometry x="950" y="189" width="160" height="146" as="geometry" />
        </mxCell>
        <mxCell id="hiR0SJMqwdzuoFLeXjnr-15" value="customer_id" style="text;strokeColor=none;fillColor=none;spacingLeft=4;spacingRight=4;overflow=hidden;rotatable=0;points=[[0,0.5],[1,0.5]];portConstraint=eastwest;fontSize=12;whiteSpace=wrap;html=1;" vertex="1" parent="hiR0SJMqwdzuoFLeXjnr-14">
          <mxGeometry y="26" width="160" height="30" as="geometry" />
        </mxCell>
        <mxCell id="hiR0SJMqwdzuoFLeXjnr-16" value="name" style="text;strokeColor=none;fillColor=none;spacingLeft=4;spacingRight=4;overflow=hidden;rotatable=0;points=[[0,0.5],[1,0.5]];portConstraint=eastwest;fontSize=12;whiteSpace=wrap;html=1;" vertex="1" parent="hiR0SJMqwdzuoFLeXjnr-14">
          <mxGeometry y="56" width="160" height="30" as="geometry" />
        </mxCell>
        <mxCell id="hiR0SJMqwdzuoFLeXjnr-17" value="email" style="text;strokeColor=none;fillColor=none;spacingLeft=4;spacingRight=4;overflow=hidden;rotatable=0;points=[[0,0.5],[1,0.5]];portConstraint=eastwest;fontSize=12;whiteSpace=wrap;html=1;" vertex="1" parent="hiR0SJMqwdzuoFLeXjnr-14">
          <mxGeometry y="86" width="160" height="30" as="geometry" />
        </mxCell>
        <mxCell id="hiR0SJMqwdzuoFLeXjnr-32" value="phone" style="text;strokeColor=none;fillColor=none;spacingLeft=4;spacingRight=4;overflow=hidden;rotatable=0;points=[[0,0.5],[1,0.5]];portConstraint=eastwest;fontSize=12;whiteSpace=wrap;html=1;" vertex="1" parent="hiR0SJMqwdzuoFLeXjnr-14">
          <mxGeometry y="116" width="160" height="30" as="geometry" />
        </mxCell>
        <mxCell id="hiR0SJMqwdzuoFLeXjnr-34" value="customer_addresses" style="swimlane;fontStyle=0;childLayout=stackLayout;horizontal=1;startSize=26;horizontalStack=0;resizeParent=1;resizeParentMax=0;resizeLast=0;collapsible=1;marginBottom=0;align=center;fontSize=14;" vertex="1" parent="1">
          <mxGeometry x="1230" y="189" width="160" height="326" as="geometry" />
        </mxCell>
        <mxCell id="hiR0SJMqwdzuoFLeXjnr-35" value="address_id" style="text;strokeColor=none;fillColor=none;spacingLeft=4;spacingRight=4;overflow=hidden;rotatable=0;points=[[0,0.5],[1,0.5]];portConstraint=eastwest;fontSize=12;whiteSpace=wrap;html=1;" vertex="1" parent="hiR0SJMqwdzuoFLeXjnr-34">
          <mxGeometry y="26" width="160" height="30" as="geometry" />
        </mxCell>
        <mxCell id="hiR0SJMqwdzuoFLeXjnr-36" value="customer_id" style="text;strokeColor=none;fillColor=none;spacingLeft=4;spacingRight=4;overflow=hidden;rotatable=0;points=[[0,0.5],[1,0.5]];portConstraint=eastwest;fontSize=12;whiteSpace=wrap;html=1;" vertex="1" parent="hiR0SJMqwdzuoFLeXjnr-34">
          <mxGeometry y="56" width="160" height="30" as="geometry" />
        </mxCell>
        <mxCell id="hiR0SJMqwdzuoFLeXjnr-37" value="country" style="text;strokeColor=none;fillColor=none;spacingLeft=4;spacingRight=4;overflow=hidden;rotatable=0;points=[[0,0.5],[1,0.5]];portConstraint=eastwest;fontSize=12;whiteSpace=wrap;html=1;" vertex="1" parent="hiR0SJMqwdzuoFLeXjnr-34">
          <mxGeometry y="86" width="160" height="30" as="geometry" />
        </mxCell>
        <mxCell id="hiR0SJMqwdzuoFLeXjnr-38" value="state" style="text;strokeColor=none;fillColor=none;spacingLeft=4;spacingRight=4;overflow=hidden;rotatable=0;points=[[0,0.5],[1,0.5]];portConstraint=eastwest;fontSize=12;whiteSpace=wrap;html=1;" vertex="1" parent="hiR0SJMqwdzuoFLeXjnr-34">
          <mxGeometry y="116" width="160" height="30" as="geometry" />
        </mxCell>
        <mxCell id="hiR0SJMqwdzuoFLeXjnr-39" value="city" style="text;strokeColor=none;fillColor=none;spacingLeft=4;spacingRight=4;overflow=hidden;rotatable=0;points=[[0,0.5],[1,0.5]];portConstraint=eastwest;fontSize=12;whiteSpace=wrap;html=1;" vertex="1" parent="hiR0SJMqwdzuoFLeXjnr-34">
          <mxGeometry y="146" width="160" height="30" as="geometry" />
        </mxCell>
        <mxCell id="hiR0SJMqwdzuoFLeXjnr-40" value="street" style="text;strokeColor=none;fillColor=none;spacingLeft=4;spacingRight=4;overflow=hidden;rotatable=0;points=[[0,0.5],[1,0.5]];portConstraint=eastwest;fontSize=12;whiteSpace=wrap;html=1;" vertex="1" parent="hiR0SJMqwdzuoFLeXjnr-34">
          <mxGeometry y="176" width="160" height="30" as="geometry" />
        </mxCell>
        <mxCell id="hiR0SJMqwdzuoFLeXjnr-41" value="floor" style="text;strokeColor=none;fillColor=none;spacingLeft=4;spacingRight=4;overflow=hidden;rotatable=0;points=[[0,0.5],[1,0.5]];portConstraint=eastwest;fontSize=12;whiteSpace=wrap;html=1;" vertex="1" parent="hiR0SJMqwdzuoFLeXjnr-34">
          <mxGeometry y="206" width="160" height="30" as="geometry" />
        </mxCell>
        <mxCell id="hiR0SJMqwdzuoFLeXjnr-42" value="apartment_no" style="text;strokeColor=none;fillColor=none;spacingLeft=4;spacingRight=4;overflow=hidden;rotatable=0;points=[[0,0.5],[1,0.5]];portConstraint=eastwest;fontSize=12;whiteSpace=wrap;html=1;" vertex="1" parent="hiR0SJMqwdzuoFLeXjnr-34">
          <mxGeometry y="236" width="160" height="30" as="geometry" />
        </mxCell>
        <mxCell id="hiR0SJMqwdzuoFLeXjnr-43" value="address_type_id" style="text;strokeColor=none;fillColor=none;spacingLeft=4;spacingRight=4;overflow=hidden;rotatable=0;points=[[0,0.5],[1,0.5]];portConstraint=eastwest;fontSize=12;whiteSpace=wrap;html=1;" vertex="1" parent="hiR0SJMqwdzuoFLeXjnr-34">
          <mxGeometry y="266" width="160" height="30" as="geometry" />
        </mxCell>
        <mxCell id="hiR0SJMqwdzuoFLeXjnr-44" value="is_default" style="text;strokeColor=none;fillColor=none;spacingLeft=4;spacingRight=4;overflow=hidden;rotatable=0;points=[[0,0.5],[1,0.5]];portConstraint=eastwest;fontSize=12;whiteSpace=wrap;html=1;" vertex="1" parent="hiR0SJMqwdzuoFLeXjnr-34">
          <mxGeometry y="296" width="160" height="30" as="geometry" />
        </mxCell>
        <mxCell id="hiR0SJMqwdzuoFLeXjnr-45" value="" style="edgeStyle=orthogonalEdgeStyle;fontSize=12;html=1;endArrow=ERoneToMany;rounded=0;exitX=1;exitY=0.5;exitDx=0;exitDy=0;entryX=0;entryY=0.5;entryDx=0;entryDy=0;" edge="1" parent="1" source="hiR0SJMqwdzuoFLeXjnr-16" target="hiR0SJMqwdzuoFLeXjnr-40">
          <mxGeometry width="100" height="100" relative="1" as="geometry">
            <mxPoint x="1040" y="479" as="sourcePoint" />
            <mxPoint x="1140" y="379" as="targetPoint" />
            <Array as="points">
              <mxPoint x="1180" y="260" />
              <mxPoint x="1180" y="380" />
            </Array>
          </mxGeometry>
        </mxCell>
        <mxCell id="5MSA646f3eR10LiwFbfj-1" value="address_types" style="swimlane;fontStyle=0;childLayout=stackLayout;horizontal=1;startSize=26;horizontalStack=0;resizeParent=1;resizeParentMax=0;resizeLast=0;collapsible=1;marginBottom=0;align=center;fontSize=14;" vertex="1" parent="1">
          <mxGeometry x="1451" y="189" width="160" height="86" as="geometry" />
        </mxCell>
        <mxCell id="5MSA646f3eR10LiwFbfj-2" value="address_type_id" style="text;strokeColor=none;fillColor=none;spacingLeft=4;spacingRight=4;overflow=hidden;rotatable=0;points=[[0,0.5],[1,0.5]];portConstraint=eastwest;fontSize=12;whiteSpace=wrap;html=1;" vertex="1" parent="5MSA646f3eR10LiwFbfj-1">
          <mxGeometry y="26" width="160" height="30" as="geometry" />
        </mxCell>
        <mxCell id="5MSA646f3eR10LiwFbfj-3" value="type_name" style="text;strokeColor=none;fillColor=none;spacingLeft=4;spacingRight=4;overflow=hidden;rotatable=0;points=[[0,0.5],[1,0.5]];portConstraint=eastwest;fontSize=12;whiteSpace=wrap;html=1;" vertex="1" parent="5MSA646f3eR10LiwFbfj-1">
          <mxGeometry y="56" width="160" height="30" as="geometry" />
        </mxCell>
        <mxCell id="5MSA646f3eR10LiwFbfj-6" value="" style="edgeStyle=entityRelationEdgeStyle;fontSize=12;html=1;endArrow=ERone;endFill=1;rounded=0;exitX=1;exitY=0.5;exitDx=0;exitDy=0;entryX=0;entryY=0.5;entryDx=0;entryDy=0;" edge="1" parent="1" source="hiR0SJMqwdzuoFLeXjnr-39" target="5MSA646f3eR10LiwFbfj-2">
          <mxGeometry width="100" height="100" relative="1" as="geometry">
            <mxPoint x="1520" y="439" as="sourcePoint" />
            <mxPoint x="1620" y="339" as="targetPoint" />
          </mxGeometry>
        </mxCell>
        <mxCell id="5MSA646f3eR10LiwFbfj-7" value="products" style="swimlane;fontStyle=0;childLayout=stackLayout;horizontal=1;startSize=26;horizontalStack=0;resizeParent=1;resizeParentMax=0;resizeLast=0;collapsible=1;marginBottom=0;align=center;fontSize=14;" vertex="1" parent="1">
          <mxGeometry x="940" y="629" width="160" height="266" as="geometry" />
        </mxCell>
        <mxCell id="5MSA646f3eR10LiwFbfj-8" value="product_id" style="text;strokeColor=none;fillColor=none;spacingLeft=4;spacingRight=4;overflow=hidden;rotatable=0;points=[[0,0.5],[1,0.5]];portConstraint=eastwest;fontSize=12;whiteSpace=wrap;html=1;" vertex="1" parent="5MSA646f3eR10LiwFbfj-7">
          <mxGeometry y="26" width="160" height="30" as="geometry" />
        </mxCell>
        <mxCell id="5MSA646f3eR10LiwFbfj-9" value="name" style="text;strokeColor=none;fillColor=none;spacingLeft=4;spacingRight=4;overflow=hidden;rotatable=0;points=[[0,0.5],[1,0.5]];portConstraint=eastwest;fontSize=12;whiteSpace=wrap;html=1;" vertex="1" parent="5MSA646f3eR10LiwFbfj-7">
          <mxGeometry y="56" width="160" height="30" as="geometry" />
        </mxCell>
        <mxCell id="5MSA646f3eR10LiwFbfj-10" value="description" style="text;strokeColor=none;fillColor=none;spacingLeft=4;spacingRight=4;overflow=hidden;rotatable=0;points=[[0,0.5],[1,0.5]];portConstraint=eastwest;fontSize=12;whiteSpace=wrap;html=1;" vertex="1" parent="5MSA646f3eR10LiwFbfj-7">
          <mxGeometry y="86" width="160" height="30" as="geometry" />
        </mxCell>
        <mxCell id="5MSA646f3eR10LiwFbfj-11" value="brand" style="text;strokeColor=none;fillColor=none;spacingLeft=4;spacingRight=4;overflow=hidden;rotatable=0;points=[[0,0.5],[1,0.5]];portConstraint=eastwest;fontSize=12;whiteSpace=wrap;html=1;" vertex="1" parent="5MSA646f3eR10LiwFbfj-7">
          <mxGeometry y="116" width="160" height="30" as="geometry" />
        </mxCell>
        <mxCell id="5MSA646f3eR10LiwFbfj-13" value="category" style="text;strokeColor=none;fillColor=none;spacingLeft=4;spacingRight=4;overflow=hidden;rotatable=0;points=[[0,0.5],[1,0.5]];portConstraint=eastwest;fontSize=12;whiteSpace=wrap;html=1;" vertex="1" parent="5MSA646f3eR10LiwFbfj-7">
          <mxGeometry y="146" width="160" height="30" as="geometry" />
        </mxCell>
        <mxCell id="5MSA646f3eR10LiwFbfj-15" value="created_at" style="text;strokeColor=none;fillColor=none;spacingLeft=4;spacingRight=4;overflow=hidden;rotatable=0;points=[[0,0.5],[1,0.5]];portConstraint=eastwest;fontSize=12;whiteSpace=wrap;html=1;" vertex="1" parent="5MSA646f3eR10LiwFbfj-7">
          <mxGeometry y="176" width="160" height="30" as="geometry" />
        </mxCell>
        <mxCell id="5MSA646f3eR10LiwFbfj-16" value="updated_at" style="text;strokeColor=none;fillColor=none;spacingLeft=4;spacingRight=4;overflow=hidden;rotatable=0;points=[[0,0.5],[1,0.5]];portConstraint=eastwest;fontSize=12;whiteSpace=wrap;html=1;" vertex="1" parent="5MSA646f3eR10LiwFbfj-7">
          <mxGeometry y="206" width="160" height="30" as="geometry" />
        </mxCell>
        <mxCell id="5MSA646f3eR10LiwFbfj-17" value="is_archived" style="text;strokeColor=none;fillColor=none;spacingLeft=4;spacingRight=4;overflow=hidden;rotatable=0;points=[[0,0.5],[1,0.5]];portConstraint=eastwest;fontSize=12;whiteSpace=wrap;html=1;" vertex="1" parent="5MSA646f3eR10LiwFbfj-7">
          <mxGeometry y="236" width="160" height="30" as="geometry" />
        </mxCell>
        <mxCell id="5MSA646f3eR10LiwFbfj-18" value="product_to_categories" style="swimlane;fontStyle=0;childLayout=stackLayout;horizontal=1;startSize=26;horizontalStack=0;resizeParent=1;resizeParentMax=0;resizeLast=0;collapsible=1;marginBottom=0;align=center;fontSize=14;" vertex="1" parent="1">
          <mxGeometry x="1190" y="629" width="160" height="86" as="geometry" />
        </mxCell>
        <mxCell id="5MSA646f3eR10LiwFbfj-19" value="category_id" style="text;strokeColor=none;fillColor=none;spacingLeft=4;spacingRight=4;overflow=hidden;rotatable=0;points=[[0,0.5],[1,0.5]];portConstraint=eastwest;fontSize=12;whiteSpace=wrap;html=1;" vertex="1" parent="5MSA646f3eR10LiwFbfj-18">
          <mxGeometry y="26" width="160" height="30" as="geometry" />
        </mxCell>
        <mxCell id="5MSA646f3eR10LiwFbfj-20" value="product_id" style="text;strokeColor=none;fillColor=none;spacingLeft=4;spacingRight=4;overflow=hidden;rotatable=0;points=[[0,0.5],[1,0.5]];portConstraint=eastwest;fontSize=12;whiteSpace=wrap;html=1;" vertex="1" parent="5MSA646f3eR10LiwFbfj-18">
          <mxGeometry y="56" width="160" height="30" as="geometry" />
        </mxCell>
        <mxCell id="5MSA646f3eR10LiwFbfj-22" value="" style="edgeStyle=orthogonalEdgeStyle;fontSize=12;html=1;endArrow=ERoneToMany;rounded=0;exitX=1;exitY=0.5;exitDx=0;exitDy=0;entryX=-0.012;entryY=0.767;entryDx=0;entryDy=0;entryPerimeter=0;" edge="1" parent="1" source="5MSA646f3eR10LiwFbfj-10" target="5MSA646f3eR10LiwFbfj-19">
          <mxGeometry width="100" height="100" relative="1" as="geometry">
            <mxPoint x="1560" y="729" as="sourcePoint" />
            <mxPoint x="1160" y="779" as="targetPoint" />
          </mxGeometry>
        </mxCell>
        <mxCell id="5MSA646f3eR10LiwFbfj-27" value="product_images" style="swimlane;fontStyle=0;childLayout=stackLayout;horizontal=1;startSize=26;horizontalStack=0;resizeParent=1;resizeParentMax=0;resizeLast=0;collapsible=1;marginBottom=0;align=center;fontSize=14;" vertex="1" parent="1">
          <mxGeometry x="1430" y="759" width="160" height="206" as="geometry" />
        </mxCell>
        <mxCell id="5MSA646f3eR10LiwFbfj-28" value="image_id" style="text;strokeColor=none;fillColor=none;spacingLeft=4;spacingRight=4;overflow=hidden;rotatable=0;points=[[0,0.5],[1,0.5]];portConstraint=eastwest;fontSize=12;whiteSpace=wrap;html=1;" vertex="1" parent="5MSA646f3eR10LiwFbfj-27">
          <mxGeometry y="26" width="160" height="30" as="geometry" />
        </mxCell>
        <mxCell id="5MSA646f3eR10LiwFbfj-29" value="product_id" style="text;strokeColor=none;fillColor=none;spacingLeft=4;spacingRight=4;overflow=hidden;rotatable=0;points=[[0,0.5],[1,0.5]];portConstraint=eastwest;fontSize=12;whiteSpace=wrap;html=1;" vertex="1" parent="5MSA646f3eR10LiwFbfj-27">
          <mxGeometry y="56" width="160" height="30" as="geometry" />
        </mxCell>
        <mxCell id="5MSA646f3eR10LiwFbfj-36" value="variant_id&lt;div&gt;&lt;br&gt;&lt;/div&gt;" style="text;strokeColor=none;fillColor=none;spacingLeft=4;spacingRight=4;overflow=hidden;rotatable=0;points=[[0,0.5],[1,0.5]];portConstraint=eastwest;fontSize=12;whiteSpace=wrap;html=1;" vertex="1" parent="5MSA646f3eR10LiwFbfj-27">
          <mxGeometry y="86" width="160" height="30" as="geometry" />
        </mxCell>
        <mxCell id="5MSA646f3eR10LiwFbfj-30" value="link" style="text;strokeColor=none;fillColor=none;spacingLeft=4;spacingRight=4;overflow=hidden;rotatable=0;points=[[0,0.5],[1,0.5]];portConstraint=eastwest;fontSize=12;whiteSpace=wrap;html=1;" vertex="1" parent="5MSA646f3eR10LiwFbfj-27">
          <mxGeometry y="116" width="160" height="30" as="geometry" />
        </mxCell>
        <mxCell id="5MSA646f3eR10LiwFbfj-35" value="alt_text" style="text;strokeColor=none;fillColor=none;spacingLeft=4;spacingRight=4;overflow=hidden;rotatable=0;points=[[0,0.5],[1,0.5]];portConstraint=eastwest;fontSize=12;whiteSpace=wrap;html=1;" vertex="1" parent="5MSA646f3eR10LiwFbfj-27">
          <mxGeometry y="146" width="160" height="30" as="geometry" />
        </mxCell>
        <mxCell id="5MSA646f3eR10LiwFbfj-61" value="is_primary" style="text;strokeColor=none;fillColor=none;spacingLeft=4;spacingRight=4;overflow=hidden;rotatable=0;points=[[0,0.5],[1,0.5]];portConstraint=eastwest;fontSize=12;whiteSpace=wrap;html=1;" vertex="1" parent="5MSA646f3eR10LiwFbfj-27">
          <mxGeometry y="176" width="160" height="30" as="geometry" />
        </mxCell>
        <mxCell id="5MSA646f3eR10LiwFbfj-37" value="" style="edgeStyle=orthogonalEdgeStyle;fontSize=12;html=1;endArrow=ERoneToMany;rounded=0;exitX=1;exitY=0.5;exitDx=0;exitDy=0;entryX=0;entryY=0.5;entryDx=0;entryDy=0;" edge="1" parent="1" source="5MSA646f3eR10LiwFbfj-11" target="5MSA646f3eR10LiwFbfj-29">
          <mxGeometry width="100" height="100" relative="1" as="geometry">
            <mxPoint x="1200" y="1079" as="sourcePoint" />
            <mxPoint x="1300" y="979" as="targetPoint" />
          </mxGeometry>
        </mxCell>
        <mxCell id="5MSA646f3eR10LiwFbfj-64" value="either product_id or variant_id" style="edgeLabel;html=1;align=center;verticalAlign=middle;resizable=0;points=[];" connectable="0" vertex="1" parent="5MSA646f3eR10LiwFbfj-37">
          <mxGeometry x="0.1757" y="-2" relative="1" as="geometry">
            <mxPoint x="4" y="-42" as="offset" />
          </mxGeometry>
        </mxCell>
        <mxCell id="5MSA646f3eR10LiwFbfj-38" value="product_variants" style="swimlane;fontStyle=0;childLayout=stackLayout;horizontal=1;startSize=26;horizontalStack=0;resizeParent=1;resizeParentMax=0;resizeLast=0;collapsible=1;marginBottom=0;align=center;fontSize=14;" vertex="1" parent="1">
          <mxGeometry x="1130" y="979" width="160" height="176" as="geometry" />
        </mxCell>
        <mxCell id="5MSA646f3eR10LiwFbfj-39" value="variant_id" style="text;strokeColor=none;fillColor=none;spacingLeft=4;spacingRight=4;overflow=hidden;rotatable=0;points=[[0,0.5],[1,0.5]];portConstraint=eastwest;fontSize=12;whiteSpace=wrap;html=1;" vertex="1" parent="5MSA646f3eR10LiwFbfj-38">
          <mxGeometry y="26" width="160" height="30" as="geometry" />
        </mxCell>
        <mxCell id="5MSA646f3eR10LiwFbfj-40" value="product_id" style="text;strokeColor=none;fillColor=none;spacingLeft=4;spacingRight=4;overflow=hidden;rotatable=0;points=[[0,0.5],[1,0.5]];portConstraint=eastwest;fontSize=12;whiteSpace=wrap;html=1;" vertex="1" parent="5MSA646f3eR10LiwFbfj-38">
          <mxGeometry y="56" width="160" height="30" as="geometry" />
        </mxCell>
        <mxCell id="5MSA646f3eR10LiwFbfj-41" value="sku" style="text;strokeColor=none;fillColor=none;spacingLeft=4;spacingRight=4;overflow=hidden;rotatable=0;points=[[0,0.5],[1,0.5]];portConstraint=eastwest;fontSize=12;whiteSpace=wrap;html=1;" vertex="1" parent="5MSA646f3eR10LiwFbfj-38">
          <mxGeometry y="86" width="160" height="30" as="geometry" />
        </mxCell>
        <mxCell id="5MSA646f3eR10LiwFbfj-42" value="unit_price" style="text;strokeColor=none;fillColor=none;spacingLeft=4;spacingRight=4;overflow=hidden;rotatable=0;points=[[0,0.5],[1,0.5]];portConstraint=eastwest;fontSize=12;whiteSpace=wrap;html=1;" vertex="1" parent="5MSA646f3eR10LiwFbfj-38">
          <mxGeometry y="116" width="160" height="30" as="geometry" />
        </mxCell>
        <mxCell id="5MSA646f3eR10LiwFbfj-43" value="quantity_in_stock" style="text;strokeColor=none;fillColor=none;spacingLeft=4;spacingRight=4;overflow=hidden;rotatable=0;points=[[0,0.5],[1,0.5]];portConstraint=eastwest;fontSize=12;whiteSpace=wrap;html=1;" vertex="1" parent="5MSA646f3eR10LiwFbfj-38">
          <mxGeometry y="146" width="160" height="30" as="geometry" />
        </mxCell>
        <mxCell id="5MSA646f3eR10LiwFbfj-44" value="" style="edgeStyle=orthogonalEdgeStyle;fontSize=12;html=1;endArrow=ERoneToMany;rounded=0;exitX=1;exitY=0.5;exitDx=0;exitDy=0;entryX=0;entryY=1.133;entryDx=0;entryDy=0;entryPerimeter=0;" edge="1" parent="1" source="5MSA646f3eR10LiwFbfj-13" target="5MSA646f3eR10LiwFbfj-40">
          <mxGeometry width="100" height="100" relative="1" as="geometry">
            <mxPoint x="1020" y="1119" as="sourcePoint" />
            <mxPoint x="1120" y="1019" as="targetPoint" />
          </mxGeometry>
        </mxCell>
        <mxCell id="5MSA646f3eR10LiwFbfj-45" value="variant_options" style="swimlane;fontStyle=0;childLayout=stackLayout;horizontal=1;startSize=26;horizontalStack=0;resizeParent=1;resizeParentMax=0;resizeLast=0;collapsible=1;marginBottom=0;align=center;fontSize=14;" vertex="1" parent="1">
          <mxGeometry x="1908" y="1089" width="160" height="86" as="geometry" />
        </mxCell>
        <mxCell id="5MSA646f3eR10LiwFbfj-46" value="option_id" style="text;strokeColor=none;fillColor=none;spacingLeft=4;spacingRight=4;overflow=hidden;rotatable=0;points=[[0,0.5],[1,0.5]];portConstraint=eastwest;fontSize=12;whiteSpace=wrap;html=1;" vertex="1" parent="5MSA646f3eR10LiwFbfj-45">
          <mxGeometry y="26" width="160" height="30" as="geometry" />
        </mxCell>
        <mxCell id="5MSA646f3eR10LiwFbfj-47" value="name" style="text;strokeColor=none;fillColor=none;spacingLeft=4;spacingRight=4;overflow=hidden;rotatable=0;points=[[0,0.5],[1,0.5]];portConstraint=eastwest;fontSize=12;whiteSpace=wrap;html=1;" vertex="1" parent="5MSA646f3eR10LiwFbfj-45">
          <mxGeometry y="56" width="160" height="30" as="geometry" />
        </mxCell>
        <mxCell id="5MSA646f3eR10LiwFbfj-48" value="variant_option_values" style="swimlane;fontStyle=0;childLayout=stackLayout;horizontal=1;startSize=26;horizontalStack=0;resizeParent=1;resizeParentMax=0;resizeLast=0;collapsible=1;marginBottom=0;align=center;fontSize=14;" vertex="1" parent="1">
          <mxGeometry x="1688" y="1079" width="160" height="116" as="geometry" />
        </mxCell>
        <mxCell id="5MSA646f3eR10LiwFbfj-49" value="value_id" style="text;strokeColor=none;fillColor=none;spacingLeft=4;spacingRight=4;overflow=hidden;rotatable=0;points=[[0,0.5],[1,0.5]];portConstraint=eastwest;fontSize=12;whiteSpace=wrap;html=1;" vertex="1" parent="5MSA646f3eR10LiwFbfj-48">
          <mxGeometry y="26" width="160" height="30" as="geometry" />
        </mxCell>
        <mxCell id="5MSA646f3eR10LiwFbfj-50" value="option_id" style="text;strokeColor=none;fillColor=none;spacingLeft=4;spacingRight=4;overflow=hidden;rotatable=0;points=[[0,0.5],[1,0.5]];portConstraint=eastwest;fontSize=12;whiteSpace=wrap;html=1;" vertex="1" parent="5MSA646f3eR10LiwFbfj-48">
          <mxGeometry y="56" width="160" height="30" as="geometry" />
        </mxCell>
        <mxCell id="5MSA646f3eR10LiwFbfj-54" value="value" style="text;strokeColor=none;fillColor=none;spacingLeft=4;spacingRight=4;overflow=hidden;rotatable=0;points=[[0,0.5],[1,0.5]];portConstraint=eastwest;fontSize=12;whiteSpace=wrap;html=1;" vertex="1" parent="5MSA646f3eR10LiwFbfj-48">
          <mxGeometry y="86" width="160" height="30" as="geometry" />
        </mxCell>
        <mxCell id="5MSA646f3eR10LiwFbfj-51" value="variant_option_assignments" style="swimlane;fontStyle=0;childLayout=stackLayout;horizontal=1;startSize=26;horizontalStack=0;resizeParent=1;resizeParentMax=0;resizeLast=0;collapsible=1;marginBottom=0;align=center;fontSize=14;" vertex="1" parent="1">
          <mxGeometry x="1438" y="1089" width="190" height="86" as="geometry" />
        </mxCell>
        <mxCell id="5MSA646f3eR10LiwFbfj-52" value="variant_id" style="text;strokeColor=none;fillColor=none;spacingLeft=4;spacingRight=4;overflow=hidden;rotatable=0;points=[[0,0.5],[1,0.5]];portConstraint=eastwest;fontSize=12;whiteSpace=wrap;html=1;" vertex="1" parent="5MSA646f3eR10LiwFbfj-51">
          <mxGeometry y="26" width="190" height="30" as="geometry" />
        </mxCell>
        <mxCell id="5MSA646f3eR10LiwFbfj-53" value="value_id" style="text;strokeColor=none;fillColor=none;spacingLeft=4;spacingRight=4;overflow=hidden;rotatable=0;points=[[0,0.5],[1,0.5]];portConstraint=eastwest;fontSize=12;whiteSpace=wrap;html=1;" vertex="1" parent="5MSA646f3eR10LiwFbfj-51">
          <mxGeometry y="56" width="190" height="30" as="geometry" />
        </mxCell>
        <mxCell id="5MSA646f3eR10LiwFbfj-55" value="" style="edgeStyle=orthogonalEdgeStyle;fontSize=12;html=1;endArrow=ERoneToMany;rounded=0;exitX=1.013;exitY=0.167;exitDx=0;exitDy=0;exitPerimeter=0;entryX=0;entryY=0.5;entryDx=0;entryDy=0;" edge="1" parent="1" source="5MSA646f3eR10LiwFbfj-41" target="5MSA646f3eR10LiwFbfj-52">
          <mxGeometry width="100" height="100" relative="1" as="geometry">
            <mxPoint x="1380" y="1369" as="sourcePoint" />
            <mxPoint x="1480" y="1269" as="targetPoint" />
          </mxGeometry>
        </mxCell>
        <mxCell id="5MSA646f3eR10LiwFbfj-62" value="" style="edgeStyle=orthogonalEdgeStyle;fontSize=12;html=1;endArrow=ERoneToMany;rounded=0;entryX=0;entryY=0.5;entryDx=0;entryDy=0;exitX=1;exitY=0.833;exitDx=0;exitDy=0;exitPerimeter=0;" edge="1" parent="1" source="5MSA646f3eR10LiwFbfj-39" target="5MSA646f3eR10LiwFbfj-36">
          <mxGeometry width="100" height="100" relative="1" as="geometry">
            <mxPoint x="1400" y="1079" as="sourcePoint" />
            <mxPoint x="1560" y="909" as="targetPoint" />
          </mxGeometry>
        </mxCell>
        <mxCell id="5MSA646f3eR10LiwFbfj-63" value="either variant_id or product_id" style="edgeLabel;html=1;align=center;verticalAlign=middle;resizable=0;points=[];" connectable="0" vertex="1" parent="5MSA646f3eR10LiwFbfj-62">
          <mxGeometry x="0.1384" y="1" relative="1" as="geometry">
            <mxPoint x="-39" y="5" as="offset" />
          </mxGeometry>
        </mxCell>
        <mxCell id="5MSA646f3eR10LiwFbfj-65" value="" style="edgeStyle=entityRelationEdgeStyle;fontSize=12;html=1;endArrow=ERoneToMany;rounded=0;entryX=1;entryY=0.5;entryDx=0;entryDy=0;exitX=0;exitY=0.5;exitDx=0;exitDy=0;" edge="1" parent="1" source="5MSA646f3eR10LiwFbfj-46" target="5MSA646f3eR10LiwFbfj-50">
          <mxGeometry width="100" height="100" relative="1" as="geometry">
            <mxPoint x="1918" y="1239" as="sourcePoint" />
            <mxPoint x="1938" y="1249" as="targetPoint" />
          </mxGeometry>
        </mxCell>
        <mxCell id="5MSA646f3eR10LiwFbfj-66" value="" style="edgeStyle=entityRelationEdgeStyle;fontSize=12;html=1;endArrow=ERoneToMany;rounded=0;entryX=1;entryY=0.5;entryDx=0;entryDy=0;exitX=0;exitY=0.5;exitDx=0;exitDy=0;" edge="1" parent="1" source="5MSA646f3eR10LiwFbfj-50" target="5MSA646f3eR10LiwFbfj-52">
          <mxGeometry width="100" height="100" relative="1" as="geometry">
            <mxPoint x="1668" y="1269" as="sourcePoint" />
            <mxPoint x="1748" y="1229" as="targetPoint" />
          </mxGeometry>
        </mxCell>
        <mxCell id="5MSA646f3eR10LiwFbfj-67" value="1,&amp;nbsp; 1, red&lt;div&gt;2, 1, green&lt;/div&gt;&lt;div&gt;3, 2, M&lt;/div&gt;&lt;div&gt;4, 2, L&lt;/div&gt;" style="text;html=1;align=left;verticalAlign=middle;resizable=0;points=[];autosize=1;strokeColor=none;fillColor=none;" vertex="1" parent="1">
          <mxGeometry x="1723" y="1213" width="80" height="70" as="geometry" />
        </mxCell>
        <mxCell id="5MSA646f3eR10LiwFbfj-68" value="1, color&lt;div&gt;2, size&lt;/div&gt;" style="text;html=1;align=left;verticalAlign=middle;resizable=0;points=[];autosize=1;strokeColor=none;fillColor=none;" vertex="1" parent="1">
          <mxGeometry x="1958" y="1228" width="60" height="40" as="geometry" />
        </mxCell>
        <mxCell id="5MSA646f3eR10LiwFbfj-69" value="1, 1&lt;div&gt;1, 2&lt;/div&gt;&lt;div&gt;1, 3&lt;/div&gt;&lt;div&gt;2, 1&lt;/div&gt;&lt;div&gt;2, 2&lt;/div&gt;&lt;div&gt;&lt;br&gt;&lt;/div&gt;" style="text;html=1;align=center;verticalAlign=middle;resizable=0;points=[];autosize=1;strokeColor=none;fillColor=none;" vertex="1" parent="1">
          <mxGeometry x="1498" y="1195" width="40" height="100" as="geometry" />
        </mxCell>
        <mxCell id="5MSA646f3eR10LiwFbfj-70" value="product_categories" style="swimlane;fontStyle=0;childLayout=stackLayout;horizontal=1;startSize=26;horizontalStack=0;resizeParent=1;resizeParentMax=0;resizeLast=0;collapsible=1;marginBottom=0;align=center;fontSize=14;" vertex="1" parent="1">
          <mxGeometry x="1430" y="609" width="160" height="116" as="geometry" />
        </mxCell>
        <mxCell id="5MSA646f3eR10LiwFbfj-71" value="category_id" style="text;strokeColor=none;fillColor=none;spacingLeft=4;spacingRight=4;overflow=hidden;rotatable=0;points=[[0,0.5],[1,0.5]];portConstraint=eastwest;fontSize=12;whiteSpace=wrap;html=1;" vertex="1" parent="5MSA646f3eR10LiwFbfj-70">
          <mxGeometry y="26" width="160" height="30" as="geometry" />
        </mxCell>
        <mxCell id="5MSA646f3eR10LiwFbfj-72" value="type_name" style="text;strokeColor=none;fillColor=none;spacingLeft=4;spacingRight=4;overflow=hidden;rotatable=0;points=[[0,0.5],[1,0.5]];portConstraint=eastwest;fontSize=12;whiteSpace=wrap;html=1;" vertex="1" parent="5MSA646f3eR10LiwFbfj-70">
          <mxGeometry y="56" width="160" height="30" as="geometry" />
        </mxCell>
        <mxCell id="5MSA646f3eR10LiwFbfj-73" value="parent_category_id" style="text;strokeColor=none;fillColor=none;spacingLeft=4;spacingRight=4;overflow=hidden;rotatable=0;points=[[0,0.5],[1,0.5]];portConstraint=eastwest;fontSize=12;whiteSpace=wrap;html=1;" vertex="1" parent="5MSA646f3eR10LiwFbfj-70">
          <mxGeometry y="86" width="160" height="30" as="geometry" />
        </mxCell>
        <mxCell id="5MSA646f3eR10LiwFbfj-74" value="" style="edgeStyle=orthogonalEdgeStyle;fontSize=12;html=1;endArrow=ERoneToMany;rounded=0;exitX=0.019;exitY=0.133;exitDx=0;exitDy=0;entryX=0.994;entryY=0.8;entryDx=0;entryDy=0;entryPerimeter=0;exitPerimeter=0;" edge="1" parent="1" source="5MSA646f3eR10LiwFbfj-72" target="5MSA646f3eR10LiwFbfj-19">
          <mxGeometry width="100" height="100" relative="1" as="geometry">
            <mxPoint x="1610" y="529" as="sourcePoint" />
            <mxPoint x="1710" y="429" as="targetPoint" />
          </mxGeometry>
        </mxCell>
        <mxCell id="5MSA646f3eR10LiwFbfj-75" value="order_statuses" style="swimlane;fontStyle=0;childLayout=stackLayout;horizontal=1;startSize=26;horizontalStack=0;resizeParent=1;resizeParentMax=0;resizeLast=0;collapsible=1;marginBottom=0;align=center;fontSize=14;" vertex="1" parent="1">
          <mxGeometry x="2018" y="529" width="160" height="86" as="geometry" />
        </mxCell>
        <mxCell id="5MSA646f3eR10LiwFbfj-76" value="status_id" style="text;strokeColor=none;fillColor=none;spacingLeft=4;spacingRight=4;overflow=hidden;rotatable=0;points=[[0,0.5],[1,0.5]];portConstraint=eastwest;fontSize=12;whiteSpace=wrap;html=1;" vertex="1" parent="5MSA646f3eR10LiwFbfj-75">
          <mxGeometry y="26" width="160" height="30" as="geometry" />
        </mxCell>
        <mxCell id="5MSA646f3eR10LiwFbfj-77" value="name" style="text;strokeColor=none;fillColor=none;spacingLeft=4;spacingRight=4;overflow=hidden;rotatable=0;points=[[0,0.5],[1,0.5]];portConstraint=eastwest;fontSize=12;whiteSpace=wrap;html=1;" vertex="1" parent="5MSA646f3eR10LiwFbfj-75">
          <mxGeometry y="56" width="160" height="30" as="geometry" />
        </mxCell>
        <mxCell id="5MSA646f3eR10LiwFbfj-78" value="orders" style="swimlane;fontStyle=0;childLayout=stackLayout;horizontal=1;startSize=26;horizontalStack=0;resizeParent=1;resizeParentMax=0;resizeLast=0;collapsible=1;marginBottom=0;align=center;fontSize=14;" vertex="1" parent="1">
          <mxGeometry x="1660" y="429" width="160" height="206" as="geometry" />
        </mxCell>
        <mxCell id="5MSA646f3eR10LiwFbfj-79" value="order_id" style="text;strokeColor=none;fillColor=none;spacingLeft=4;spacingRight=4;overflow=hidden;rotatable=0;points=[[0,0.5],[1,0.5]];portConstraint=eastwest;fontSize=12;whiteSpace=wrap;html=1;" vertex="1" parent="5MSA646f3eR10LiwFbfj-78">
          <mxGeometry y="26" width="160" height="30" as="geometry" />
        </mxCell>
        <mxCell id="5MSA646f3eR10LiwFbfj-80" value="created_at" style="text;strokeColor=none;fillColor=none;spacingLeft=4;spacingRight=4;overflow=hidden;rotatable=0;points=[[0,0.5],[1,0.5]];portConstraint=eastwest;fontSize=12;whiteSpace=wrap;html=1;" vertex="1" parent="5MSA646f3eR10LiwFbfj-78">
          <mxGeometry y="56" width="160" height="30" as="geometry" />
        </mxCell>
        <mxCell id="5MSA646f3eR10LiwFbfj-81" value="&lt;div&gt;updated_at&lt;/div&gt;" style="text;strokeColor=none;fillColor=none;spacingLeft=4;spacingRight=4;overflow=hidden;rotatable=0;points=[[0,0.5],[1,0.5]];portConstraint=eastwest;fontSize=12;whiteSpace=wrap;html=1;" vertex="1" parent="5MSA646f3eR10LiwFbfj-78">
          <mxGeometry y="86" width="160" height="30" as="geometry" />
        </mxCell>
        <mxCell id="5MSA646f3eR10LiwFbfj-82" value="status_id" style="text;strokeColor=none;fillColor=none;spacingLeft=4;spacingRight=4;overflow=hidden;rotatable=0;points=[[0,0.5],[1,0.5]];portConstraint=eastwest;fontSize=12;whiteSpace=wrap;html=1;" vertex="1" parent="5MSA646f3eR10LiwFbfj-78">
          <mxGeometry y="116" width="160" height="30" as="geometry" />
        </mxCell>
        <mxCell id="5MSA646f3eR10LiwFbfj-83" value="customer_id" style="text;strokeColor=none;fillColor=none;spacingLeft=4;spacingRight=4;overflow=hidden;rotatable=0;points=[[0,0.5],[1,0.5]];portConstraint=eastwest;fontSize=12;whiteSpace=wrap;html=1;" vertex="1" parent="5MSA646f3eR10LiwFbfj-78">
          <mxGeometry y="146" width="160" height="30" as="geometry" />
        </mxCell>
        <mxCell id="5MSA646f3eR10LiwFbfj-84" value="address_id" style="text;strokeColor=none;fillColor=none;spacingLeft=4;spacingRight=4;overflow=hidden;rotatable=0;points=[[0,0.5],[1,0.5]];portConstraint=eastwest;fontSize=12;whiteSpace=wrap;html=1;" vertex="1" parent="5MSA646f3eR10LiwFbfj-78">
          <mxGeometry y="176" width="160" height="30" as="geometry" />
        </mxCell>
        <mxCell id="5MSA646f3eR10LiwFbfj-85" value="" style="edgeStyle=orthogonalEdgeStyle;fontSize=12;html=1;endArrow=ERmandOne;startArrow=ERmandOne;rounded=0;entryX=0;entryY=0.5;entryDx=0;entryDy=0;" edge="1" parent="1" source="hiR0SJMqwdzuoFLeXjnr-43" target="5MSA646f3eR10LiwFbfj-81">
          <mxGeometry width="100" height="100" relative="1" as="geometry">
            <mxPoint x="1630" y="569" as="sourcePoint" />
            <mxPoint x="1730" y="469" as="targetPoint" />
          </mxGeometry>
        </mxCell>
        <mxCell id="5MSA646f3eR10LiwFbfj-86" value="" style="edgeStyle=orthogonalEdgeStyle;fontSize=12;html=1;endArrow=ERmandOne;startArrow=ERmandOne;rounded=0;entryX=0;entryY=0.5;entryDx=0;entryDy=0;exitX=1;exitY=0.5;exitDx=0;exitDy=0;" edge="1" parent="1" source="5MSA646f3eR10LiwFbfj-81" target="5MSA646f3eR10LiwFbfj-76">
          <mxGeometry width="100" height="100" relative="1" as="geometry">
            <mxPoint x="2020" y="565" as="sourcePoint" />
            <mxPoint x="2120" y="465" as="targetPoint" />
          </mxGeometry>
        </mxCell>
        <mxCell id="5MSA646f3eR10LiwFbfj-87" value="order_items" style="swimlane;fontStyle=0;childLayout=stackLayout;horizontal=1;startSize=26;horizontalStack=0;resizeParent=1;resizeParentMax=0;resizeLast=0;collapsible=1;marginBottom=0;align=center;fontSize=14;" vertex="1" parent="1">
          <mxGeometry x="1980" y="689" width="160" height="146" as="geometry" />
        </mxCell>
        <mxCell id="5MSA646f3eR10LiwFbfj-88" value="order_id" style="text;strokeColor=none;fillColor=none;spacingLeft=4;spacingRight=4;overflow=hidden;rotatable=0;points=[[0,0.5],[1,0.5]];portConstraint=eastwest;fontSize=12;whiteSpace=wrap;html=1;" vertex="1" parent="5MSA646f3eR10LiwFbfj-87">
          <mxGeometry y="26" width="160" height="30" as="geometry" />
        </mxCell>
        <mxCell id="5MSA646f3eR10LiwFbfj-89" value="variant_id" style="text;strokeColor=none;fillColor=none;spacingLeft=4;spacingRight=4;overflow=hidden;rotatable=0;points=[[0,0.5],[1,0.5]];portConstraint=eastwest;fontSize=12;whiteSpace=wrap;html=1;" vertex="1" parent="5MSA646f3eR10LiwFbfj-87">
          <mxGeometry y="56" width="160" height="30" as="geometry" />
        </mxCell>
        <mxCell id="5MSA646f3eR10LiwFbfj-90" value="quantity" style="text;strokeColor=none;fillColor=none;spacingLeft=4;spacingRight=4;overflow=hidden;rotatable=0;points=[[0,0.5],[1,0.5]];portConstraint=eastwest;fontSize=12;whiteSpace=wrap;html=1;" vertex="1" parent="5MSA646f3eR10LiwFbfj-87">
          <mxGeometry y="86" width="160" height="30" as="geometry" />
        </mxCell>
        <mxCell id="5MSA646f3eR10LiwFbfj-91" value="unit_price" style="text;strokeColor=none;fillColor=none;spacingLeft=4;spacingRight=4;overflow=hidden;rotatable=0;points=[[0,0.5],[1,0.5]];portConstraint=eastwest;fontSize=12;whiteSpace=wrap;html=1;" vertex="1" parent="5MSA646f3eR10LiwFbfj-87">
          <mxGeometry y="116" width="160" height="30" as="geometry" />
        </mxCell>
        <mxCell id="5MSA646f3eR10LiwFbfj-93" value="" style="edgeStyle=orthogonalEdgeStyle;fontSize=12;html=1;endArrow=ERoneToMany;rounded=0;entryX=0;entryY=0.5;entryDx=0;entryDy=0;exitX=1;exitY=0.5;exitDx=0;exitDy=0;" edge="1" parent="1" source="5MSA646f3eR10LiwFbfj-82" target="5MSA646f3eR10LiwFbfj-89">
          <mxGeometry width="100" height="100" relative="1" as="geometry">
            <mxPoint x="1770" y="949" as="sourcePoint" />
            <mxPoint x="1870" y="849" as="targetPoint" />
          </mxGeometry>
        </mxCell>
        <mxCell id="5MSA646f3eR10LiwFbfj-94" value="" style="edgeStyle=orthogonalEdgeStyle;fontSize=12;html=1;endArrow=ERmandOne;startArrow=ERmandOne;rounded=0;exitX=1;exitY=0.5;exitDx=0;exitDy=0;entryX=0;entryY=0.5;entryDx=0;entryDy=0;" edge="1" parent="1" source="5MSA646f3eR10LiwFbfj-40" target="5MSA646f3eR10LiwFbfj-90">
          <mxGeometry width="100" height="100" relative="1" as="geometry">
            <mxPoint x="1650" y="959" as="sourcePoint" />
            <mxPoint x="1750" y="859" as="targetPoint" />
          </mxGeometry>
        </mxCell>
        <mxCell id="5MSA646f3eR10LiwFbfj-96" value="shipments" style="swimlane;fontStyle=0;childLayout=stackLayout;horizontal=1;startSize=26;horizontalStack=0;resizeParent=1;resizeParentMax=0;resizeLast=0;collapsible=1;marginBottom=0;align=center;fontSize=14;" vertex="1" parent="1">
          <mxGeometry x="1980" y="259" width="160" height="236" as="geometry" />
        </mxCell>
        <mxCell id="5MSA646f3eR10LiwFbfj-97" value="shipment_id" style="text;strokeColor=none;fillColor=none;spacingLeft=4;spacingRight=4;overflow=hidden;rotatable=0;points=[[0,0.5],[1,0.5]];portConstraint=eastwest;fontSize=12;whiteSpace=wrap;html=1;" vertex="1" parent="5MSA646f3eR10LiwFbfj-96">
          <mxGeometry y="26" width="160" height="30" as="geometry" />
        </mxCell>
        <mxCell id="5MSA646f3eR10LiwFbfj-98" value="carrier" style="text;strokeColor=none;fillColor=none;spacingLeft=4;spacingRight=4;overflow=hidden;rotatable=0;points=[[0,0.5],[1,0.5]];portConstraint=eastwest;fontSize=12;whiteSpace=wrap;html=1;" vertex="1" parent="5MSA646f3eR10LiwFbfj-96">
          <mxGeometry y="56" width="160" height="30" as="geometry" />
        </mxCell>
        <mxCell id="5MSA646f3eR10LiwFbfj-99" value="&lt;div&gt;tracking_number&lt;/div&gt;" style="text;strokeColor=none;fillColor=none;spacingLeft=4;spacingRight=4;overflow=hidden;rotatable=0;points=[[0,0.5],[1,0.5]];portConstraint=eastwest;fontSize=12;whiteSpace=wrap;html=1;" vertex="1" parent="5MSA646f3eR10LiwFbfj-96">
          <mxGeometry y="86" width="160" height="30" as="geometry" />
        </mxCell>
        <mxCell id="5MSA646f3eR10LiwFbfj-100" value="shipment_date" style="text;strokeColor=none;fillColor=none;spacingLeft=4;spacingRight=4;overflow=hidden;rotatable=0;points=[[0,0.5],[1,0.5]];portConstraint=eastwest;fontSize=12;whiteSpace=wrap;html=1;" vertex="1" parent="5MSA646f3eR10LiwFbfj-96">
          <mxGeometry y="116" width="160" height="30" as="geometry" />
        </mxCell>
        <mxCell id="5MSA646f3eR10LiwFbfj-101" value="delivery_date" style="text;strokeColor=none;fillColor=none;spacingLeft=4;spacingRight=4;overflow=hidden;rotatable=0;points=[[0,0.5],[1,0.5]];portConstraint=eastwest;fontSize=12;whiteSpace=wrap;html=1;" vertex="1" parent="5MSA646f3eR10LiwFbfj-96">
          <mxGeometry y="146" width="160" height="30" as="geometry" />
        </mxCell>
        <mxCell id="5MSA646f3eR10LiwFbfj-102" value="order_id" style="text;strokeColor=none;fillColor=none;spacingLeft=4;spacingRight=4;overflow=hidden;rotatable=0;points=[[0,0.5],[1,0.5]];portConstraint=eastwest;fontSize=12;whiteSpace=wrap;html=1;" vertex="1" parent="5MSA646f3eR10LiwFbfj-96">
          <mxGeometry y="176" width="160" height="30" as="geometry" />
        </mxCell>
        <mxCell id="5MSA646f3eR10LiwFbfj-103" value="address_id" style="text;strokeColor=none;fillColor=none;spacingLeft=4;spacingRight=4;overflow=hidden;rotatable=0;points=[[0,0.5],[1,0.5]];portConstraint=eastwest;fontSize=12;whiteSpace=wrap;html=1;" vertex="1" parent="5MSA646f3eR10LiwFbfj-96">
          <mxGeometry y="206" width="160" height="30" as="geometry" />
        </mxCell>
        <mxCell id="5MSA646f3eR10LiwFbfj-104" value="" style="edgeStyle=orthogonalEdgeStyle;fontSize=12;html=1;endArrow=ERmandOne;startArrow=ERmandOne;rounded=0;exitX=1;exitY=0.5;exitDx=0;exitDy=0;entryX=0;entryY=0.5;entryDx=0;entryDy=0;" edge="1" parent="1" source="hiR0SJMqwdzuoFLeXjnr-41" target="5MSA646f3eR10LiwFbfj-99">
          <mxGeometry width="100" height="100" relative="1" as="geometry">
            <mxPoint x="1640" y="439" as="sourcePoint" />
            <mxPoint x="1740" y="339" as="targetPoint" />
          </mxGeometry>
        </mxCell>
        <mxCell id="5MSA646f3eR10LiwFbfj-105" value="" style="edgeStyle=orthogonalEdgeStyle;fontSize=12;html=1;endArrow=ERmandOne;startArrow=ERmandOne;rounded=0;entryX=0.024;entryY=0.204;entryDx=0;entryDy=0;entryPerimeter=0;exitX=1;exitY=0.5;exitDx=0;exitDy=0;" edge="1" parent="1" source="5MSA646f3eR10LiwFbfj-80" target="5MSA646f3eR10LiwFbfj-100">
          <mxGeometry width="100" height="100" relative="1" as="geometry">
            <mxPoint x="1800" y="479" as="sourcePoint" />
            <mxPoint x="1900" y="379" as="targetPoint" />
          </mxGeometry>
        </mxCell>
        <mxCell id="5MSA646f3eR10LiwFbfj-106" value="" style="edgeStyle=orthogonalEdgeStyle;fontSize=12;html=1;endArrow=ERmandOne;startArrow=ERmandOne;rounded=0;exitX=1;exitY=0.5;exitDx=0;exitDy=0;entryX=0;entryY=0.5;entryDx=0;entryDy=0;" edge="1" parent="1" source="hiR0SJMqwdzuoFLeXjnr-17" target="5MSA646f3eR10LiwFbfj-82">
          <mxGeometry width="100" height="100" relative="1" as="geometry">
            <mxPoint x="1020" y="559" as="sourcePoint" />
            <mxPoint x="1120" y="459" as="targetPoint" />
            <Array as="points">
              <mxPoint x="1150" y="290" />
              <mxPoint x="1150" y="560" />
            </Array>
          </mxGeometry>
        </mxCell>
        <mxCell id="mIX7cPe6dENU7lHL1pWy-1" value="brands" style="swimlane;fontStyle=0;childLayout=stackLayout;horizontal=1;startSize=26;horizontalStack=0;resizeParent=1;resizeParentMax=0;resizeLast=0;collapsible=1;marginBottom=0;align=center;fontSize=14;" vertex="1" parent="1">
          <mxGeometry x="720" y="879" width="160" height="116" as="geometry" />
        </mxCell>
        <mxCell id="mIX7cPe6dENU7lHL1pWy-2" value="brand_id" style="text;strokeColor=none;fillColor=none;spacingLeft=4;spacingRight=4;overflow=hidden;rotatable=0;points=[[0,0.5],[1,0.5]];portConstraint=eastwest;fontSize=12;whiteSpace=wrap;html=1;" vertex="1" parent="mIX7cPe6dENU7lHL1pWy-1">
          <mxGeometry y="26" width="160" height="30" as="geometry" />
        </mxCell>
        <mxCell id="mIX7cPe6dENU7lHL1pWy-3" value="name" style="text;strokeColor=none;fillColor=none;spacingLeft=4;spacingRight=4;overflow=hidden;rotatable=0;points=[[0,0.5],[1,0.5]];portConstraint=eastwest;fontSize=12;whiteSpace=wrap;html=1;" vertex="1" parent="mIX7cPe6dENU7lHL1pWy-1">
          <mxGeometry y="56" width="160" height="30" as="geometry" />
        </mxCell>
        <mxCell id="mIX7cPe6dENU7lHL1pWy-4" value="logo_url" style="text;strokeColor=none;fillColor=none;spacingLeft=4;spacingRight=4;overflow=hidden;rotatable=0;points=[[0,0.5],[1,0.5]];portConstraint=eastwest;fontSize=12;whiteSpace=wrap;html=1;" vertex="1" parent="mIX7cPe6dENU7lHL1pWy-1">
          <mxGeometry y="86" width="160" height="30" as="geometry" />
        </mxCell>
        <mxCell id="mIX7cPe6dENU7lHL1pWy-6" value="" style="edgeStyle=entityRelationEdgeStyle;fontSize=12;html=1;endArrow=ERzeroToMany;endFill=1;rounded=0;exitX=1.006;exitY=0.267;exitDx=0;exitDy=0;exitPerimeter=0;" edge="1" parent="1" source="mIX7cPe6dENU7lHL1pWy-3" target="5MSA646f3eR10LiwFbfj-17">
          <mxGeometry width="100" height="100" relative="1" as="geometry">
            <mxPoint x="980" y="1259" as="sourcePoint" />
            <mxPoint x="1150" y="889" as="targetPoint" />
            <Array as="points">
              <mxPoint x="1110" y="879" />
              <mxPoint x="1130" y="879" />
              <mxPoint x="1100" y="969" />
              <mxPoint x="1240" y="889" />
            </Array>
          </mxGeometry>
        </mxCell>
        <mxCell id="bYa46Zds9t2y2uz4xOuj-1" value="product_tags" style="swimlane;fontStyle=0;childLayout=stackLayout;horizontal=1;startSize=26;horizontalStack=0;resizeParent=1;resizeParentMax=0;resizeLast=0;collapsible=1;marginBottom=0;align=center;fontSize=14;" vertex="1" parent="1">
          <mxGeometry x="720" y="759" width="160" height="86" as="geometry" />
        </mxCell>
        <mxCell id="bYa46Zds9t2y2uz4xOuj-2" value="product_id" style="text;strokeColor=none;fillColor=none;spacingLeft=4;spacingRight=4;overflow=hidden;rotatable=0;points=[[0,0.5],[1,0.5]];portConstraint=eastwest;fontSize=12;whiteSpace=wrap;html=1;" vertex="1" parent="bYa46Zds9t2y2uz4xOuj-1">
          <mxGeometry y="26" width="160" height="30" as="geometry" />
        </mxCell>
        <mxCell id="bYa46Zds9t2y2uz4xOuj-3" value="tag_id" style="text;strokeColor=none;fillColor=none;spacingLeft=4;spacingRight=4;overflow=hidden;rotatable=0;points=[[0,0.5],[1,0.5]];portConstraint=eastwest;fontSize=12;whiteSpace=wrap;html=1;" vertex="1" parent="bYa46Zds9t2y2uz4xOuj-1">
          <mxGeometry y="56" width="160" height="30" as="geometry" />
        </mxCell>
        <mxCell id="bYa46Zds9t2y2uz4xOuj-4" value="tags" style="swimlane;fontStyle=0;childLayout=stackLayout;horizontal=1;startSize=26;horizontalStack=0;resizeParent=1;resizeParentMax=0;resizeLast=0;collapsible=1;marginBottom=0;align=center;fontSize=14;" vertex="1" parent="1">
          <mxGeometry x="510" y="759" width="160" height="86" as="geometry" />
        </mxCell>
        <mxCell id="bYa46Zds9t2y2uz4xOuj-5" value="tags_id" style="text;strokeColor=none;fillColor=none;spacingLeft=4;spacingRight=4;overflow=hidden;rotatable=0;points=[[0,0.5],[1,0.5]];portConstraint=eastwest;fontSize=12;whiteSpace=wrap;html=1;" vertex="1" parent="bYa46Zds9t2y2uz4xOuj-4">
          <mxGeometry y="26" width="160" height="30" as="geometry" />
        </mxCell>
        <mxCell id="bYa46Zds9t2y2uz4xOuj-6" value="name" style="text;strokeColor=none;fillColor=none;spacingLeft=4;spacingRight=4;overflow=hidden;rotatable=0;points=[[0,0.5],[1,0.5]];portConstraint=eastwest;fontSize=12;whiteSpace=wrap;html=1;" vertex="1" parent="bYa46Zds9t2y2uz4xOuj-4">
          <mxGeometry y="56" width="160" height="30" as="geometry" />
        </mxCell>
        <mxCell id="bYa46Zds9t2y2uz4xOuj-7" value="" style="edgeStyle=orthogonalEdgeStyle;fontSize=12;html=1;endArrow=ERoneToMany;rounded=0;exitX=0;exitY=0.5;exitDx=0;exitDy=0;entryX=1;entryY=0.767;entryDx=0;entryDy=0;entryPerimeter=0;" edge="1" parent="1" source="5MSA646f3eR10LiwFbfj-11" target="bYa46Zds9t2y2uz4xOuj-2">
          <mxGeometry width="100" height="100" relative="1" as="geometry">
            <mxPoint x="620" y="1009" as="sourcePoint" />
            <mxPoint x="720" y="909" as="targetPoint" />
          </mxGeometry>
        </mxCell>
        <mxCell id="bYa46Zds9t2y2uz4xOuj-8" value="" style="edgeStyle=entityRelationEdgeStyle;fontSize=12;html=1;endArrow=ERoneToMany;rounded=0;entryX=0;entryY=0.5;entryDx=0;entryDy=0;exitX=1;exitY=0.5;exitDx=0;exitDy=0;" edge="1" parent="1" source="bYa46Zds9t2y2uz4xOuj-5" target="bYa46Zds9t2y2uz4xOuj-2">
          <mxGeometry width="100" height="100" relative="1" as="geometry">
            <mxPoint x="540" y="1023" as="sourcePoint" />
            <mxPoint x="640" y="923" as="targetPoint" />
          </mxGeometry>
        </mxCell>
        <mxCell id="bYa46Zds9t2y2uz4xOuj-9" value="invoices" style="swimlane;fontStyle=0;childLayout=stackLayout;horizontal=1;startSize=26;horizontalStack=0;resizeParent=1;resizeParentMax=0;resizeLast=0;collapsible=1;marginBottom=0;align=center;fontSize=14;" vertex="1" parent="1">
          <mxGeometry x="650" y="189" width="160" height="326" as="geometry" />
        </mxCell>
        <mxCell id="bYa46Zds9t2y2uz4xOuj-10" value="invoice_id" style="text;strokeColor=none;fillColor=none;spacingLeft=4;spacingRight=4;overflow=hidden;rotatable=0;points=[[0,0.5],[1,0.5]];portConstraint=eastwest;fontSize=12;whiteSpace=wrap;html=1;" vertex="1" parent="bYa46Zds9t2y2uz4xOuj-9">
          <mxGeometry y="26" width="160" height="30" as="geometry" />
        </mxCell>
        <mxCell id="bYa46Zds9t2y2uz4xOuj-11" value="order_id" style="text;strokeColor=none;fillColor=none;spacingLeft=4;spacingRight=4;overflow=hidden;rotatable=0;points=[[0,0.5],[1,0.5]];portConstraint=eastwest;fontSize=12;whiteSpace=wrap;html=1;" vertex="1" parent="bYa46Zds9t2y2uz4xOuj-9">
          <mxGeometry y="56" width="160" height="30" as="geometry" />
        </mxCell>
        <mxCell id="bYa46Zds9t2y2uz4xOuj-12" value="customer_id" style="text;strokeColor=none;fillColor=none;spacingLeft=4;spacingRight=4;overflow=hidden;rotatable=0;points=[[0,0.5],[1,0.5]];portConstraint=eastwest;fontSize=12;whiteSpace=wrap;html=1;" vertex="1" parent="bYa46Zds9t2y2uz4xOuj-9">
          <mxGeometry y="86" width="160" height="30" as="geometry" />
        </mxCell>
        <mxCell id="bYa46Zds9t2y2uz4xOuj-13" value="invoice_total" style="text;strokeColor=none;fillColor=none;spacingLeft=4;spacingRight=4;overflow=hidden;rotatable=0;points=[[0,0.5],[1,0.5]];portConstraint=eastwest;fontSize=12;whiteSpace=wrap;html=1;" vertex="1" parent="bYa46Zds9t2y2uz4xOuj-9">
          <mxGeometry y="116" width="160" height="30" as="geometry" />
        </mxCell>
        <mxCell id="bYa46Zds9t2y2uz4xOuj-14" value="tax" style="text;strokeColor=none;fillColor=none;spacingLeft=4;spacingRight=4;overflow=hidden;rotatable=0;points=[[0,0.5],[1,0.5]];portConstraint=eastwest;fontSize=12;whiteSpace=wrap;html=1;" vertex="1" parent="bYa46Zds9t2y2uz4xOuj-9">
          <mxGeometry y="146" width="160" height="30" as="geometry" />
        </mxCell>
        <mxCell id="bYa46Zds9t2y2uz4xOuj-15" value="discount" style="text;strokeColor=none;fillColor=none;spacingLeft=4;spacingRight=4;overflow=hidden;rotatable=0;points=[[0,0.5],[1,0.5]];portConstraint=eastwest;fontSize=12;whiteSpace=wrap;html=1;" vertex="1" parent="bYa46Zds9t2y2uz4xOuj-9">
          <mxGeometry y="176" width="160" height="30" as="geometry" />
        </mxCell>
        <mxCell id="bYa46Zds9t2y2uz4xOuj-16" value="payment_total" style="text;strokeColor=none;fillColor=none;spacingLeft=4;spacingRight=4;overflow=hidden;rotatable=0;points=[[0,0.5],[1,0.5]];portConstraint=eastwest;fontSize=12;whiteSpace=wrap;html=1;" vertex="1" parent="bYa46Zds9t2y2uz4xOuj-9">
          <mxGeometry y="206" width="160" height="30" as="geometry" />
        </mxCell>
        <mxCell id="bYa46Zds9t2y2uz4xOuj-17" value="invoice_date" style="text;strokeColor=none;fillColor=none;spacingLeft=4;spacingRight=4;overflow=hidden;rotatable=0;points=[[0,0.5],[1,0.5]];portConstraint=eastwest;fontSize=12;whiteSpace=wrap;html=1;" vertex="1" parent="bYa46Zds9t2y2uz4xOuj-9">
          <mxGeometry y="236" width="160" height="30" as="geometry" />
        </mxCell>
        <mxCell id="bYa46Zds9t2y2uz4xOuj-18" value="due_date" style="text;strokeColor=none;fillColor=none;spacingLeft=4;spacingRight=4;overflow=hidden;rotatable=0;points=[[0,0.5],[1,0.5]];portConstraint=eastwest;fontSize=12;whiteSpace=wrap;html=1;" vertex="1" parent="bYa46Zds9t2y2uz4xOuj-9">
          <mxGeometry y="266" width="160" height="30" as="geometry" />
        </mxCell>
        <mxCell id="bYa46Zds9t2y2uz4xOuj-19" value="payment_date" style="text;strokeColor=none;fillColor=none;spacingLeft=4;spacingRight=4;overflow=hidden;rotatable=0;points=[[0,0.5],[1,0.5]];portConstraint=eastwest;fontSize=12;whiteSpace=wrap;html=1;" vertex="1" parent="bYa46Zds9t2y2uz4xOuj-9">
          <mxGeometry y="296" width="160" height="30" as="geometry" />
        </mxCell>
        <mxCell id="bYa46Zds9t2y2uz4xOuj-20" value="" style="edgeStyle=orthogonalEdgeStyle;fontSize=12;html=1;endArrow=ERoneToMany;rounded=0;exitX=0;exitY=0.5;exitDx=0;exitDy=0;" edge="1" parent="1" source="hiR0SJMqwdzuoFLeXjnr-16" target="bYa46Zds9t2y2uz4xOuj-14">
          <mxGeometry width="100" height="100" relative="1" as="geometry">
            <mxPoint x="710" y="449" as="sourcePoint" />
            <mxPoint x="810" y="349" as="targetPoint" />
          </mxGeometry>
        </mxCell>
        <mxCell id="bYa46Zds9t2y2uz4xOuj-21" value="" style="edgeStyle=orthogonalEdgeStyle;fontSize=12;html=1;endArrow=ERmandOne;startArrow=ERmandOne;rounded=0;entryX=0;entryY=0.5;entryDx=0;entryDy=0;exitX=1;exitY=0.5;exitDx=0;exitDy=0;" edge="1" parent="1" source="bYa46Zds9t2y2uz4xOuj-15" target="5MSA646f3eR10LiwFbfj-83">
          <mxGeometry width="100" height="100" relative="1" as="geometry">
            <mxPoint x="800" y="609" as="sourcePoint" />
            <mxPoint x="900" y="509" as="targetPoint" />
            <Array as="points">
              <mxPoint x="1060" y="380" />
              <mxPoint x="1060" y="590" />
            </Array>
          </mxGeometry>
        </mxCell>
        <mxCell id="bYa46Zds9t2y2uz4xOuj-22" value="payments" style="swimlane;fontStyle=0;childLayout=stackLayout;horizontal=1;startSize=26;horizontalStack=0;resizeParent=1;resizeParentMax=0;resizeLast=0;collapsible=1;marginBottom=0;align=center;fontSize=14;" vertex="1" parent="1">
          <mxGeometry x="420" y="269" width="160" height="206" as="geometry" />
        </mxCell>
        <mxCell id="bYa46Zds9t2y2uz4xOuj-23" value="payment_id" style="text;strokeColor=none;fillColor=none;spacingLeft=4;spacingRight=4;overflow=hidden;rotatable=0;points=[[0,0.5],[1,0.5]];portConstraint=eastwest;fontSize=12;whiteSpace=wrap;html=1;" vertex="1" parent="bYa46Zds9t2y2uz4xOuj-22">
          <mxGeometry y="26" width="160" height="30" as="geometry" />
        </mxCell>
        <mxCell id="bYa46Zds9t2y2uz4xOuj-24" value="invoice_id" style="text;strokeColor=none;fillColor=none;spacingLeft=4;spacingRight=4;overflow=hidden;rotatable=0;points=[[0,0.5],[1,0.5]];portConstraint=eastwest;fontSize=12;whiteSpace=wrap;html=1;" vertex="1" parent="bYa46Zds9t2y2uz4xOuj-22">
          <mxGeometry y="56" width="160" height="30" as="geometry" />
        </mxCell>
        <mxCell id="bYa46Zds9t2y2uz4xOuj-25" value="&lt;div&gt;amount&lt;/div&gt;" style="text;strokeColor=none;fillColor=none;spacingLeft=4;spacingRight=4;overflow=hidden;rotatable=0;points=[[0,0.5],[1,0.5]];portConstraint=eastwest;fontSize=12;whiteSpace=wrap;html=1;" vertex="1" parent="bYa46Zds9t2y2uz4xOuj-22">
          <mxGeometry y="86" width="160" height="30" as="geometry" />
        </mxCell>
        <mxCell id="bYa46Zds9t2y2uz4xOuj-26" value="payment_date" style="text;strokeColor=none;fillColor=none;spacingLeft=4;spacingRight=4;overflow=hidden;rotatable=0;points=[[0,0.5],[1,0.5]];portConstraint=eastwest;fontSize=12;whiteSpace=wrap;html=1;" vertex="1" parent="bYa46Zds9t2y2uz4xOuj-22">
          <mxGeometry y="116" width="160" height="30" as="geometry" />
        </mxCell>
        <mxCell id="bYa46Zds9t2y2uz4xOuj-27" value="payment_method_id" style="text;strokeColor=none;fillColor=none;spacingLeft=4;spacingRight=4;overflow=hidden;rotatable=0;points=[[0,0.5],[1,0.5]];portConstraint=eastwest;fontSize=12;whiteSpace=wrap;html=1;" vertex="1" parent="bYa46Zds9t2y2uz4xOuj-22">
          <mxGeometry y="146" width="160" height="30" as="geometry" />
        </mxCell>
        <mxCell id="bYa46Zds9t2y2uz4xOuj-28" value="status_id" style="text;strokeColor=none;fillColor=none;spacingLeft=4;spacingRight=4;overflow=hidden;rotatable=0;points=[[0,0.5],[1,0.5]];portConstraint=eastwest;fontSize=12;whiteSpace=wrap;html=1;" vertex="1" parent="bYa46Zds9t2y2uz4xOuj-22">
          <mxGeometry y="176" width="160" height="30" as="geometry" />
        </mxCell>
        <mxCell id="bYa46Zds9t2y2uz4xOuj-29" value="payment_statuses" style="swimlane;fontStyle=0;childLayout=stackLayout;horizontal=1;startSize=26;horizontalStack=0;resizeParent=1;resizeParentMax=0;resizeLast=0;collapsible=1;marginBottom=0;align=center;fontSize=14;" vertex="1" parent="1">
          <mxGeometry x="180" y="429" width="160" height="86" as="geometry" />
        </mxCell>
        <mxCell id="bYa46Zds9t2y2uz4xOuj-30" value="status_id" style="text;strokeColor=none;fillColor=none;spacingLeft=4;spacingRight=4;overflow=hidden;rotatable=0;points=[[0,0.5],[1,0.5]];portConstraint=eastwest;fontSize=12;whiteSpace=wrap;html=1;" vertex="1" parent="bYa46Zds9t2y2uz4xOuj-29">
          <mxGeometry y="26" width="160" height="30" as="geometry" />
        </mxCell>
        <mxCell id="bYa46Zds9t2y2uz4xOuj-31" value="name" style="text;strokeColor=none;fillColor=none;spacingLeft=4;spacingRight=4;overflow=hidden;rotatable=0;points=[[0,0.5],[1,0.5]];portConstraint=eastwest;fontSize=12;whiteSpace=wrap;html=1;" vertex="1" parent="bYa46Zds9t2y2uz4xOuj-29">
          <mxGeometry y="56" width="160" height="30" as="geometry" />
        </mxCell>
        <mxCell id="bYa46Zds9t2y2uz4xOuj-32" value="payment_methods" style="swimlane;fontStyle=0;childLayout=stackLayout;horizontal=1;startSize=26;horizontalStack=0;resizeParent=1;resizeParentMax=0;resizeLast=0;collapsible=1;marginBottom=0;align=center;fontSize=14;" vertex="1" parent="1">
          <mxGeometry x="180" y="269" width="160" height="116" as="geometry" />
        </mxCell>
        <mxCell id="bYa46Zds9t2y2uz4xOuj-33" value="method_id" style="text;strokeColor=none;fillColor=none;spacingLeft=4;spacingRight=4;overflow=hidden;rotatable=0;points=[[0,0.5],[1,0.5]];portConstraint=eastwest;fontSize=12;whiteSpace=wrap;html=1;" vertex="1" parent="bYa46Zds9t2y2uz4xOuj-32">
          <mxGeometry y="26" width="160" height="30" as="geometry" />
        </mxCell>
        <mxCell id="bYa46Zds9t2y2uz4xOuj-34" value="type" style="text;strokeColor=none;fillColor=none;spacingLeft=4;spacingRight=4;overflow=hidden;rotatable=0;points=[[0,0.5],[1,0.5]];portConstraint=eastwest;fontSize=12;whiteSpace=wrap;html=1;" vertex="1" parent="bYa46Zds9t2y2uz4xOuj-32">
          <mxGeometry y="56" width="160" height="30" as="geometry" />
        </mxCell>
        <mxCell id="bYa46Zds9t2y2uz4xOuj-35" value="name" style="text;strokeColor=none;fillColor=none;spacingLeft=4;spacingRight=4;overflow=hidden;rotatable=0;points=[[0,0.5],[1,0.5]];portConstraint=eastwest;fontSize=12;whiteSpace=wrap;html=1;" vertex="1" parent="bYa46Zds9t2y2uz4xOuj-32">
          <mxGeometry y="86" width="160" height="30" as="geometry" />
        </mxCell>
        <mxCell id="bYa46Zds9t2y2uz4xOuj-36" value="" style="edgeStyle=orthogonalEdgeStyle;fontSize=12;html=1;endArrow=ERmandOne;startArrow=ERmandOne;rounded=0;entryX=0;entryY=0.5;entryDx=0;entryDy=0;" edge="1" parent="1" source="bYa46Zds9t2y2uz4xOuj-25" target="bYa46Zds9t2y2uz4xOuj-14">
          <mxGeometry width="100" height="100" relative="1" as="geometry">
            <mxPoint x="520" y="649" as="sourcePoint" />
            <mxPoint x="620" y="549" as="targetPoint" />
          </mxGeometry>
        </mxCell>
        <mxCell id="bYa46Zds9t2y2uz4xOuj-38" value="" style="edgeStyle=orthogonalEdgeStyle;fontSize=12;html=1;endArrow=ERoneToMany;rounded=0;exitX=0.997;exitY=0.031;exitDx=0;exitDy=0;exitPerimeter=0;" edge="1" parent="1" source="bYa46Zds9t2y2uz4xOuj-34" target="bYa46Zds9t2y2uz4xOuj-25">
          <mxGeometry width="100" height="100" relative="1" as="geometry">
            <mxPoint x="220" y="749" as="sourcePoint" />
            <mxPoint x="320" y="649" as="targetPoint" />
          </mxGeometry>
        </mxCell>
        <mxCell id="bYa46Zds9t2y2uz4xOuj-39" value="" style="edgeStyle=orthogonalEdgeStyle;fontSize=12;html=1;endArrow=ERoneToMany;rounded=0;entryX=0;entryY=0.5;entryDx=0;entryDy=0;exitX=1;exitY=0.5;exitDx=0;exitDy=0;" edge="1" parent="1" source="bYa46Zds9t2y2uz4xOuj-30" target="bYa46Zds9t2y2uz4xOuj-26">
          <mxGeometry width="100" height="100" relative="1" as="geometry">
            <mxPoint x="320" y="659" as="sourcePoint" />
            <mxPoint x="420" y="559" as="targetPoint" />
          </mxGeometry>
        </mxCell>
        <mxCell id="EG2cPT84g3Ph-ZRmMNbt-1" value="inventory_levels" style="swimlane;fontStyle=0;childLayout=stackLayout;horizontal=1;startSize=26;horizontalStack=0;resizeParent=1;resizeParentMax=0;resizeLast=0;collapsible=1;marginBottom=0;align=center;fontSize=14;" vertex="1" parent="1">
          <mxGeometry x="750" y="1059" width="160" height="176" as="geometry" />
        </mxCell>
        <mxCell id="EG2cPT84g3Ph-ZRmMNbt-2" value="inventory_id" style="text;strokeColor=none;fillColor=none;spacingLeft=4;spacingRight=4;overflow=hidden;rotatable=0;points=[[0,0.5],[1,0.5]];portConstraint=eastwest;fontSize=12;whiteSpace=wrap;html=1;" vertex="1" parent="EG2cPT84g3Ph-ZRmMNbt-1">
          <mxGeometry y="26" width="160" height="30" as="geometry" />
        </mxCell>
        <mxCell id="EG2cPT84g3Ph-ZRmMNbt-3" value="variant_id" style="text;strokeColor=none;fillColor=none;spacingLeft=4;spacingRight=4;overflow=hidden;rotatable=0;points=[[0,0.5],[1,0.5]];portConstraint=eastwest;fontSize=12;whiteSpace=wrap;html=1;" vertex="1" parent="EG2cPT84g3Ph-ZRmMNbt-1">
          <mxGeometry y="56" width="160" height="30" as="geometry" />
        </mxCell>
        <mxCell id="EG2cPT84g3Ph-ZRmMNbt-4" value="quantity_in_stock" style="text;strokeColor=none;fillColor=none;spacingLeft=4;spacingRight=4;overflow=hidden;rotatable=0;points=[[0,0.5],[1,0.5]];portConstraint=eastwest;fontSize=12;whiteSpace=wrap;html=1;" vertex="1" parent="EG2cPT84g3Ph-ZRmMNbt-1">
          <mxGeometry y="86" width="160" height="30" as="geometry" />
        </mxCell>
        <mxCell id="EG2cPT84g3Ph-ZRmMNbt-5" value="created_at" style="text;strokeColor=none;fillColor=none;spacingLeft=4;spacingRight=4;overflow=hidden;rotatable=0;points=[[0,0.5],[1,0.5]];portConstraint=eastwest;fontSize=12;whiteSpace=wrap;html=1;" vertex="1" parent="EG2cPT84g3Ph-ZRmMNbt-1">
          <mxGeometry y="116" width="160" height="30" as="geometry" />
        </mxCell>
        <mxCell id="EG2cPT84g3Ph-ZRmMNbt-6" value="updated_at" style="text;strokeColor=none;fillColor=none;spacingLeft=4;spacingRight=4;overflow=hidden;rotatable=0;points=[[0,0.5],[1,0.5]];portConstraint=eastwest;fontSize=12;whiteSpace=wrap;html=1;" vertex="1" parent="EG2cPT84g3Ph-ZRmMNbt-1">
          <mxGeometry y="146" width="160" height="30" as="geometry" />
        </mxCell>
        <mxCell id="EG2cPT84g3Ph-ZRmMNbt-7" value="inventory_movements" style="swimlane;fontStyle=0;childLayout=stackLayout;horizontal=1;startSize=26;horizontalStack=0;resizeParent=1;resizeParentMax=0;resizeLast=0;collapsible=1;marginBottom=0;align=center;fontSize=14;" vertex="1" parent="1">
          <mxGeometry x="750" y="1259" width="160" height="206" as="geometry" />
        </mxCell>
        <mxCell id="EG2cPT84g3Ph-ZRmMNbt-9" value="movement_id" style="text;strokeColor=none;fillColor=none;spacingLeft=4;spacingRight=4;overflow=hidden;rotatable=0;points=[[0,0.5],[1,0.5]];portConstraint=eastwest;fontSize=12;whiteSpace=wrap;html=1;" vertex="1" parent="EG2cPT84g3Ph-ZRmMNbt-7">
          <mxGeometry y="26" width="160" height="30" as="geometry" />
        </mxCell>
        <mxCell id="EG2cPT84g3Ph-ZRmMNbt-8" value="variant_id" style="text;strokeColor=none;fillColor=none;spacingLeft=4;spacingRight=4;overflow=hidden;rotatable=0;points=[[0,0.5],[1,0.5]];portConstraint=eastwest;fontSize=12;whiteSpace=wrap;html=1;" vertex="1" parent="EG2cPT84g3Ph-ZRmMNbt-7">
          <mxGeometry y="56" width="160" height="30" as="geometry" />
        </mxCell>
        <mxCell id="EG2cPT84g3Ph-ZRmMNbt-10" value="movement_type" style="text;strokeColor=none;fillColor=none;spacingLeft=4;spacingRight=4;overflow=hidden;rotatable=0;points=[[0,0.5],[1,0.5]];portConstraint=eastwest;fontSize=12;whiteSpace=wrap;html=1;" vertex="1" parent="EG2cPT84g3Ph-ZRmMNbt-7">
          <mxGeometry y="86" width="160" height="30" as="geometry" />
        </mxCell>
        <mxCell id="EG2cPT84g3Ph-ZRmMNbt-11" value="quantity" style="text;strokeColor=none;fillColor=none;spacingLeft=4;spacingRight=4;overflow=hidden;rotatable=0;points=[[0,0.5],[1,0.5]];portConstraint=eastwest;fontSize=12;whiteSpace=wrap;html=1;" vertex="1" parent="EG2cPT84g3Ph-ZRmMNbt-7">
          <mxGeometry y="116" width="160" height="30" as="geometry" />
        </mxCell>
        <mxCell id="EG2cPT84g3Ph-ZRmMNbt-12" value="reason" style="text;strokeColor=none;fillColor=none;spacingLeft=4;spacingRight=4;overflow=hidden;rotatable=0;points=[[0,0.5],[1,0.5]];portConstraint=eastwest;fontSize=12;whiteSpace=wrap;html=1;" vertex="1" parent="EG2cPT84g3Ph-ZRmMNbt-7">
          <mxGeometry y="146" width="160" height="30" as="geometry" />
        </mxCell>
        <mxCell id="EG2cPT84g3Ph-ZRmMNbt-13" value="created_at" style="text;strokeColor=none;fillColor=none;spacingLeft=4;spacingRight=4;overflow=hidden;rotatable=0;points=[[0,0.5],[1,0.5]];portConstraint=eastwest;fontSize=12;whiteSpace=wrap;html=1;" vertex="1" parent="EG2cPT84g3Ph-ZRmMNbt-7">
          <mxGeometry y="176" width="160" height="30" as="geometry" />
        </mxCell>
        <mxCell id="EG2cPT84g3Ph-ZRmMNbt-14" value="" style="edgeStyle=orthogonalEdgeStyle;fontSize=12;html=1;endArrow=ERmandOne;startArrow=ERmandOne;rounded=0;entryX=0.006;entryY=0.76;entryDx=0;entryDy=0;entryPerimeter=0;exitX=1;exitY=0.5;exitDx=0;exitDy=0;" edge="1" parent="1" source="EG2cPT84g3Ph-ZRmMNbt-4" target="5MSA646f3eR10LiwFbfj-41">
          <mxGeometry width="100" height="100" relative="1" as="geometry">
            <mxPoint x="960" y="1209" as="sourcePoint" />
            <mxPoint x="1060" y="1109" as="targetPoint" />
          </mxGeometry>
        </mxCell>
        <mxCell id="EG2cPT84g3Ph-ZRmMNbt-15" value="" style="edgeStyle=orthogonalEdgeStyle;fontSize=12;html=1;endArrow=ERoneToMany;rounded=0;exitX=-0.008;exitY=0.872;exitDx=0;exitDy=0;exitPerimeter=0;entryX=1.004;entryY=0.686;entryDx=0;entryDy=0;entryPerimeter=0;" edge="1" parent="1" source="5MSA646f3eR10LiwFbfj-42" target="EG2cPT84g3Ph-ZRmMNbt-10">
          <mxGeometry width="100" height="100" relative="1" as="geometry">
            <mxPoint x="940" y="1369" as="sourcePoint" />
            <mxPoint x="1040" y="1269" as="targetPoint" />
            <Array as="points">
              <mxPoint x="1060" y="1121" />
              <mxPoint x="1060" y="1366" />
            </Array>
          </mxGeometry>
        </mxCell>
        <mxCell id="EG2cPT84g3Ph-ZRmMNbt-16" value="" style="endArrow=classic;html=1;rounded=0;exitX=0;exitY=0.5;exitDx=0;exitDy=0;entryX=-0.011;entryY=0.858;entryDx=0;entryDy=0;entryPerimeter=0;" edge="1" parent="1" source="EG2cPT84g3Ph-ZRmMNbt-10" target="EG2cPT84g3Ph-ZRmMNbt-3">
          <mxGeometry width="50" height="50" relative="1" as="geometry">
            <mxPoint x="630" y="1299" as="sourcePoint" />
            <mxPoint x="680" y="1249" as="targetPoint" />
            <Array as="points">
              <mxPoint x="660" y="1359" />
              <mxPoint x="660" y="1139" />
            </Array>
          </mxGeometry>
        </mxCell>
        <mxCell id="EG2cPT84g3Ph-ZRmMNbt-17" value="updates with trigger" style="edgeLabel;html=1;align=center;verticalAlign=middle;resizable=0;points=[];" connectable="0" vertex="1" parent="EG2cPT84g3Ph-ZRmMNbt-16">
          <mxGeometry x="-0.0334" relative="1" as="geometry">
            <mxPoint as="offset" />
          </mxGeometry>
        </mxCell>
      </root>
    </mxGraphModel>
  </diagram>
</mxfile>
